<svg version="1" xmlns="http://www.w3.org/2000/svg" width="666.667" height="666.667" viewBox="0 0 500.000000 500.000000"><path d="M101.5 76.2c-13.1 22.7-38.9 67.4-57.3 99.3-18.4 31.9-35.4 61.3-37.8 65.4-2.4 4-4.4 8.2-4.4 9.2s4.4 9.5 9.7 18.8c5.4 9.3 33.2 57.4 61.8 107l52 90.1 124.9-.3 124.8-.2 7.6-13c4.1-7.2 8.6-15 10-17.5 1.4-2.5 7.1-12.4 12.7-22s12-20.7 14.2-24.5c2.2-3.9 20.9-36.4 41.6-72.2 20.8-35.9 37.7-65.7 37.7-66.1 0-.5-5.5-10.3-12.1-21.8-6.7-11.5-17.2-29.7-23.4-40.4-6.2-10.7-13.8-24-17-29.5-6.4-11-14.6-25.3-43.3-75.1-10.5-18.1-21-36.4-23.4-40.5l-4.4-7.4-125-.3-125.1-.2-23.8 41.2zM96 224.5v5.5H72v45H61v-45H37v-11h59v5.5zm71 22.5v28h-59v-56h59v28zm23-17.5V240h19.5l7.5-10.5 7.5-10.5h6.3c3.4 0 6.2.3 6.2.6s-4 6.1-9 12.9c-4.9 6.8-9 12.8-9 13.4 0 .6 4.1 7.2 9 14.6 5 7.4 9 13.7 9 14 0 .3-2.8.5-6.3.5h-6.4l-7.7-12-7.8-12H190v24h-11v-56h11v10.5zm119-5v5.5h-47v10h47v11h-47v13h47v11h-58v-56h58v5.5zm41.7 14.1l17.8 19.7.3-19.7.2-19.6h11v56h-10.8l-17.9-19.7-17.8-19.7-.3 19.7-.2 19.7h-11v-56h10.8l17.9 19.6zM451 224.5v5.5h-47v10h47v35h-58v-11h47v-13h-47v-32h58v5.5z"/><path d="M119.7 230.7c-.4.3-.7 8-.7 17V264h37v-34h-17.8c-9.8 0-18.2.3-18.5.7z"/></svg>